HIERARCHY
ROOT hip
{
	OFFSET 0.000000 0.000000 0.000000 
	CHANNELS 6 Xposition Yposition Zposition Xrotation Zrotation Yrotation
	JOINT abdomen
	{
		OFFSET 0.000000 3.402643 0.000000 
		CHANNELS 3 Xrotation Zrotation Yrotation
		JOINT chest
		{
			OFFSET 0.000000 8.438565 -0.680529 
			CHANNELS 3 Xrotation Zrotation Yrotation
			JOINT neck
			{
				OFFSET 0.000000 10.207942 -0.272212 
				CHANNELS 3 Xrotation Zrotation Yrotation
				JOINT head
				{
					OFFSET 0.000000 3.130431 0.000000 
					CHANNELS 3 Xrotation Zrotation Yrotation
					End Site
					{
						OFFSET 0.000000 3.130435 0.000000 
					}
				}
			}
			JOINT lCollar
			{
				OFFSET 3.470700 6.669187 -0.816635 
				CHANNELS 3 Yrotation Zrotation Xrotation
				JOINT lShldr
				{
					OFFSET 3.198488 0.000000 0.000000 
					CHANNELS 3 Zrotation Yrotation Xrotation
					JOINT lForeArm
					{
						OFFSET 10.139888 0.000000 0.000000 
						CHANNELS 3 Yrotation Zrotation Xrotation
						JOINT lHand
						{
							OFFSET 8.370511 0.000000 0.000000 
							CHANNELS 3 Zrotation Yrotation Xrotation
							End Site
							{
								OFFSET 4.083176 0.000000 0.000000 
							}
						}
					}
				}
			}
			JOINT rCollar
			{
				OFFSET -3.470700 6.669187 -0.816635 
				CHANNELS 3 Yrotation Zrotation Xrotation
				JOINT rShldr
				{
					OFFSET -3.198488 0.000000 0.000000 
					CHANNELS 3 Zrotation Yrotation Xrotation
					JOINT rForeArm
					{
						OFFSET -10.139888 0.000000 0.000000 
						CHANNELS 3 Yrotation Zrotation Xrotation
						JOINT rHand
						{
							OFFSET -8.370511 0.000000 0.000000 
							CHANNELS 3 Zrotation Yrotation Xrotation
							End Site
							{
								OFFSET -4.083176 0.000000 0.000000 
							}
						}
					}
				}
			}
		}
	}
	JOINT lThigh
	{
		OFFSET 5.308129 -1.633274 1.361059 
		CHANNELS 3 Xrotation Zrotation Yrotation
		JOINT lShin
		{
			OFFSET -2.041588 -20.007561 0.000000 
			CHANNELS 3 Xrotation Zrotation Yrotation
			JOINT lFoot
			{
				OFFSET 0.000000 -19.190928 -1.224953 
				CHANNELS 3 Xrotation Yrotation Zrotation
				End Site
				{
					OFFSET 0.000000 -2.449906 4.627600 
				}
			}
		}
	}
	JOINT rThigh
	{
		OFFSET -5.308129 -1.633274 1.361059 
		CHANNELS 3 Xrotation Zrotation Yrotation
		JOINT rShin
		{
			OFFSET 2.041588 -20.007561 0.000000 
			CHANNELS 3 Xrotation Zrotation Yrotation
			JOINT rFoot
			{
				OFFSET 0.000000 -19.190928 -1.224953 
				CHANNELS 3 Xrotation Yrotation Zrotation
				End Site
				{
					OFFSET 0.000000 -2.449906 4.627600 
				}
			}
		}
	}
}
MOTION
Frames: 13
Frame Time: 0.011111
54.043434 27.032755 4.156723 -4.382623 -24.895741 -72.739197 56.832890 -4.181898 -4.045969 -6.571979 3.019239 -1.570575 6.042547 -15.617459 -22.890366 6.559196 43.528912 -44.796772 1.452834 -1.250150 0.768655 -42.079918 -81.667587 12.535556 -90.049271 1.024206 30.361761 6.992188 16.005859 -12.350821 -6.408587 0.914528 1.823621 18.873972 95.879791 3.077945 78.796799 -8.651668 20.195082 -7.001954 -15.996095 46.904301 -71.921402 19.579702 -10.662775 69.323494 -3.756469 -5.155839 21.192774 7.456553 -1.178666 -67.168953 -12.107363 -0.660605 77.410149 3.222472 5.580491 12.492110 -8.840782 1.559316 
53.989681 27.021582 4.160649 -4.457422 -25.024864 -72.794060 57.331120 -4.275939 -4.087366 -6.916883 3.743266 -1.591707 5.830023 -16.152582 -22.905388 6.792551 43.188007 -44.631569 1.452834 -1.250150 0.768655 -40.889702 -82.763138 13.334480 -90.075089 1.052012 30.537676 6.992188 16.005859 -11.618400 -6.408587 0.914528 1.823621 12.989189 95.618240 -1.990210 78.727097 -8.673932 20.168221 -7.001954 -15.996095 47.236328 -71.839867 19.647520 -10.645175 69.470345 -3.755840 -5.160781 21.143295 7.490439 -1.199921 -67.070618 -12.175522 -0.784518 77.528114 3.193360 5.590541 12.277692 -8.702281 1.514238 
53.919621 26.993801 4.168199 -4.566232 -25.030649 -72.824280 57.683449 -4.535734 -4.349158 -7.263513 4.591985 -1.658164 5.654632 -16.366850 -22.911850 6.926549 42.557980 -44.495300 1.452834 -1.250150 0.768655 -39.132572 -83.702759 13.742878 -90.095711 1.089555 30.664824 6.992188 16.005859 -10.983633 -6.408587 0.914528 1.823621 6.391582 95.421219 -7.819038 78.635651 -8.700039 20.120081 -7.001954 -15.996095 47.685551 -71.940582 19.667530 -10.585522 69.656952 -3.736938 -5.174109 21.357590 7.075352 -1.040282 -67.205536 -12.235986 -0.718657 77.684807 3.183545 5.597592 12.097067 -8.594041 1.492704 
53.894257 26.985647 4.167594 -4.581843 -24.990015 -72.843315 57.832317 -4.560882 -4.235250 -7.449397 4.541095 -1.621070 5.814912 -16.385853 -23.003183 6.866990 42.798107 -44.688572 1.452834 -1.250150 0.768655 -36.318672 -84.798691 14.141221 -90.122856 1.135955 30.821421 6.992188 16.005859 -10.104727 -6.408587 0.914528 1.823621 -1.889936 95.312820 -16.308090 78.514374 -8.735534 20.057486 -7.001954 -15.996095 47.441406 -72.050125 19.706926 -10.591513 69.754539 -3.746042 -5.174189 21.464821 6.969836 -0.982890 -67.313797 -12.167824 -0.603192 77.773026 3.173815 5.602458 12.032023 -8.541621 1.474374 
53.905739 27.007994 4.164575 -4.704853 -24.806019 -72.839142 57.619686 -4.548133 -4.078646 -6.886125 3.374129 -1.559139 5.794125 -16.055592 -23.004303 6.692411 43.703064 -44.960426 1.452834 -1.250150 0.768655 -31.393526 -86.244431 13.221046 -90.159515 1.200387 31.007463 6.992188 16.005859 -9.313712 -6.408587 0.914528 1.823621 -5.480320 95.354141 -21.428492 78.422470 -8.760731 20.009375 -7.001954 -15.996095 46.337887 -71.941566 19.638390 -10.378514 69.705971 -3.736957 -5.185603 21.360172 7.286546 -1.096772 -67.488228 -12.060106 -0.290211 77.743492 3.183562 5.599509 12.161631 -8.370057 1.452425 
53.901203 27.039700 4.185411 -4.789146 -24.578262 -72.832672 57.486759 -4.520278 -4.114832 -6.699895 3.261102 -1.561489 5.740661 -16.157141 -22.985884 6.508511 43.902431 -45.024620 1.452834 -1.250150 0.768655 -27.330837 -87.306343 12.028778 -90.202431 1.282959 31.203279 6.992188 16.005859 -8.757071 -6.408587 0.914528 1.823621 -9.636627 95.392769 -25.745888 78.463013 -8.749147 20.032995 -7.001954 -15.996095 46.015625 -71.911720 19.530870 -10.243847 69.647156 -3.736926 -5.173748 20.993771 7.554140 -1.238816 -67.687164 -12.097829 -0.089939 77.655350 3.193391 5.604393 12.312633 -8.158492 1.392234 
53.891239 27.070805 4.196584 -4.739662 -24.561073 -72.974152 57.648502 -4.505528 -4.092031 -6.749553 3.474826 -1.566109 5.756754 -16.304644 -22.947157 6.235876 43.808197 -44.970188 1.452834 -1.250150 0.768655 -22.675520 -88.091896 9.958068 -90.244568 1.364985 31.360325 6.992188 16.005859 -8.551992 -6.408587 0.914528 1.823621 -14.414289 95.473228 -29.933027 78.564217 -8.719856 20.082289 -7.001954 -15.996095 47.060547 -71.894821 19.666422 -10.253914 69.607704 -3.746061 -5.168845 20.752914 7.672644 -1.275269 -67.613632 -12.020711 -0.162654 77.518143 3.203111 5.588195 12.446392 -7.894578 1.346962 
53.912079 27.108854 4.186618 -4.865577 -24.818964 -73.226791 58.067966 -4.618632 -4.212127 -6.561214 2.686417 -1.582519 5.756137 -16.049316 -22.745955 6.191947 44.437977 -44.744694 1.452834 -1.250150 0.768655 -14.533013 -88.603943 5.143073 -90.289650 1.455847 31.517187 6.992188 16.005859 -8.786367 -6.408587 0.914528 1.823621 -18.232187 95.649178 -33.926624 78.889351 -8.626759 20.254177 -7.001954 -15.996095 48.574219 -71.445267 19.980463 -10.008647 69.578239 -3.746639 -5.158462 20.953178 7.511920 -1.213723 -67.185349 -11.796412 -0.145442 77.351662 3.212922 5.580766 12.799685 -7.336991 1.206535 
53.916916 27.128786 4.184807 -4.662512 -24.965672 -73.533134 58.343742 -4.533831 -3.893592 -6.541709 2.679665 -1.532346 5.621458 -16.364683 -22.771774 6.243877 44.683735 -44.776310 1.452834 -1.250150 0.768655 -3.646516 -89.215202 -3.372210 -90.335403 1.536082 31.664558 6.992188 16.005859 -9.225821 -6.408587 0.914528 1.823621 -20.783836 95.724136 -37.136787 78.940208 -8.612114 20.278700 -7.001954 -15.996095 46.503910 -71.384506 20.360937 -10.017265 69.558983 -3.736885 -5.160821 21.413570 7.284148 -1.109384 -66.903763 -11.484272 -0.281636 77.273415 3.212901 5.578192 12.945525 -7.276404 1.192073 
53.892143 27.130899 4.189035 -4.399995 -24.782394 -73.755684 58.193710 -4.434613 -3.547472 -6.385984 2.892404 -1.456748 5.463355 -16.388897 -22.910542 5.861874 44.171207 -45.161568 1.452834 -1.250150 0.768655 0.000000 -89.841629 -4.856043 -90.384018 1.625181 31.802229 6.992188 16.005859 -9.792227 -6.408587 0.914528 1.823621 -23.383093 95.806145 -40.131786 79.040260 -8.580593 20.328043 -7.001954 -15.996095 45.263672 -71.740738 20.604151 -10.150018 69.568451 -3.746631 -5.158099 21.620340 7.350824 -1.131158 -67.105118 -11.336997 -0.459642 77.282906 3.222660 5.566767 12.812244 -7.526674 1.242967 
53.869801 27.132711 4.199604 -4.403388 -24.465614 -73.690102 57.939468 -4.423848 -3.514934 -6.229739 2.954901 -1.451484 5.451915 -16.135286 -23.002111 5.389857 43.756561 -45.506031 1.452834 -1.250150 0.768655 -46.269295 -90.425064 43.621616 -90.437569 1.722655 31.939932 6.992188 16.005859 -10.309805 -6.408587 0.914528 1.823621 -26.494476 95.955330 -43.659813 79.040260 -8.580593 20.328043 -7.001954 -15.996095 45.283203 -72.102615 20.477308 -10.148721 69.617416 -3.746070 -5.159510 21.775137 7.374329 -1.117748 -67.503632 -11.551413 -0.528959 77.390587 3.222686 5.580010 12.794195 -7.323127 1.200831 
53.842918 27.110361 4.235539 -4.368951 -23.969305 -73.398254 57.390629 -4.141112 -3.357326 -5.975070 2.746639 -1.429701 5.365725 -15.893729 -23.060862 5.229262 43.757957 -45.765030 1.452834 -1.250150 0.768655 -24.469707 -90.948547 24.091722 -90.498306 1.827848 32.078251 6.992188 16.005859 -10.534416 -6.408587 0.914528 1.823621 -28.299955 96.013725 -45.887287 79.184250 -8.541184 20.411425 -7.001954 -15.996095 45.439453 -72.748505 20.077202 -10.180864 69.705574 -3.746695 -5.172839 22.028648 7.185511 -1.043052 -68.206703 -11.941978 -0.534294 77.567238 3.193372 5.591821 12.846983 -7.086348 1.170643 
53.819977 27.091337 4.259697 -4.459384 -23.647938 -73.257942 57.113110 -4.128563 -3.194918 -5.740392 2.685576 -1.376938 5.416826 -15.768286 -23.123659 4.885159 43.959854 -46.057518 1.452834 -1.250150 0.768655 -16.791878 -91.412491 18.526743 -90.567207 1.940308 32.236145 6.992188 16.005859 -10.944571 -6.408587 0.914528 1.823621 -29.824100 96.042160 -47.911777 79.525612 -8.433523 20.583828 -7.001954 -15.996095 45.087891 -73.024406 19.853014 -10.091255 69.783897 -3.746056 -5.175273 21.967297 7.184817 -1.039923 -68.691673 -12.224419 -0.450181 77.694275 3.203155 5.603672 12.953710 -6.819830 1.091733 
